<?xml version="1.0" encoding="UTF-8" standalone="no"?>
<svg
   xmlns:dc="http://purl.org/dc/elements/1.1/"
   xmlns:cc="http://creativecommons.org/ns#"
   xmlns:rdf="http://www.w3.org/1999/02/22-rdf-syntax-ns#"
   xmlns:svg="http://www.w3.org/2000/svg"
   xmlns="http://www.w3.org/2000/svg"
   xmlns:sodipodi="http://sodipodi.sourceforge.net/DTD/sodipodi-0.dtd"
   xmlns:inkscape="http://www.inkscape.org/namespaces/inkscape"
   width="60"
   height="59"
   version="1.1"
   id="svg16"
   sodipodi:docname="Done.svg"
   inkscape:version="0.92.5 (2060ec1f9f, 2020-04-08)">
  <metadata
     id="metadata22">
    <rdf:RDF>
      <cc:Work
         rdf:about="">
        <dc:format>image/svg+xml</dc:format>
        <dc:type
           rdf:resource="http://purl.org/dc/dcmitype/StillImage" />
        <dc:title />
      </cc:Work>
    </rdf:RDF>
  </metadata>
  <defs
     id="defs20" />
  <sodipodi:namedview
     pagecolor="#ffffff"
     bordercolor="#666666"
     borderopacity="1"
     objecttolerance="10"
     gridtolerance="10"
     guidetolerance="10"
     inkscape:pageopacity="0"
     inkscape:pageshadow="2"
     inkscape:window-width="1920"
     inkscape:window-height="1013"
     id="namedview18"
     showgrid="false"
     inkscape:zoom="7.5335106"
     inkscape:cx="-17.779805"
     inkscape:cy="16.10803"
     inkscape:window-x="0"
     inkscape:window-y="0"
     inkscape:window-maximized="1"
     inkscape:current-layer="g370" />
  <path
     style="fill:#858585"
     d="M 28,13 A 15,15 0 0 0 13,28 15,15 0 0 0 28,43 15,15 0 0 0 43,28 15,15 0 0 0 28,13 Z m 0,9 c 3.3138,0 6,2.6862 6,6 0,3.3138 -2.6862,6 -6,6 -3.3138,0 -6,-2.6862 -6,-6 0,-3.3138 2.6862,-6 6,-6 z"
     id="path4"
     inkscape:connector-curvature="0" />
  <path
     style="fill:#ffffff"
     d="m 43.966,50 -5.9656,-8 h 4 v -8 h 4 v 8 h 4 z"
     id="path12"
     inkscape:connector-curvature="0" />
  <g
     id="g370"
     transform="matrix(1.0704336,0,0,1.0704336,-4.2538751,-5.2609925)">
    <rect
       id="rect299"
       ry="4"
       rx="4"
       y="9"
       x="4"
       height="48"
       width="56"
       style="opacity:0.2" />
    <rect
       id="rect301"
       ry="4"
       rx="4"
       y="8"
       x="4"
       height="48"
       width="56"
       style="fill:#1caff3;fill-opacity:1" />
    <g
       id="g319"
       transform="matrix(2,0,0,2,0,1)"
       style="opacity:0.2">
      <path
         id="path303"
         d="m 6.5929,13.231 1.2714,2.18 c 0.81026,-1.2023 1.7427,-2.7904 2.5428,-3.8158"
         style="fill:none;stroke:#000000;stroke-width:1.17700005;stroke-linecap:round;stroke-linejoin:round"
         inkscape:connector-curvature="0" />
      <circle
         id="circle305"
         r="1"
         cy="9"
         cx="8" />
      <rect
         id="rect307"
         ry="1"
         rx="1"
         y="8"
         x="12"
         height="2"
         width="13" />
      <rect
         id="rect309"
         ry="1"
         rx="1"
         y="13"
         x="12"
         height="2"
         width="13" />
      <rect
         id="rect311"
         ry="1"
         rx="1"
         y="18"
         x="12"
         height="2"
         width="13" />
      <rect
         id="rect313"
         ry="1"
         rx="1"
         y="23"
         x="12"
         height="2"
         width="13" />
      <circle
         id="circle315"
         r="1"
         cy="19"
         cx="8" />
      <circle
         id="circle317"
         r="1"
         cy="24"
         cx="8" />
    </g>
    <g
       id="g337"
       transform="scale(2)">
      <path
         id="path321"
         d="m 6.5929,13.231 1.2714,2.18 c 0.81026,-1.2023 1.7427,-2.7904 2.5428,-3.8158"
         style="fill:none;stroke:#ffffff;stroke-width:1.17700005;stroke-linecap:round;stroke-linejoin:round"
         inkscape:connector-curvature="0" />
      <circle
         id="circle323"
         r="1"
         cy="9"
         cx="8"
         style="fill:#ffffff" />
      <rect
         id="rect325"
         ry="1"
         rx="1"
         y="8"
         x="12"
         height="2"
         width="13"
         style="fill:#ffffff" />
      <rect
         id="rect327"
         ry="1"
         rx="1"
         y="13"
         x="12"
         height="2"
         width="13"
         style="fill:#ffffff" />
      <rect
         id="rect329"
         ry="1"
         rx="1"
         y="18"
         x="12"
         height="2"
         width="13"
         style="fill:#ffffff" />
      <rect
         id="rect331"
         ry="1"
         rx="1"
         y="23"
         x="12"
         height="2"
         width="13"
         style="fill:#ffffff" />
      <circle
         id="circle333"
         r="1"
         cy="19"
         cx="8"
         style="fill:#ffffff" />
      <circle
         id="circle335"
         r="1"
         cy="24"
         cx="8"
         style="fill:#ffffff" />
    </g>
    <path
       id="path339"
       d="M 8,8 C 5.784,8 4,9.784 4,12 v 1 C 4,10.784 5.784,9 8,9 h 48 c 2.216,0 4,1.784 4,4 V 12 C 60,9.784 58.216,8 56,8 Z"
       style="opacity:0.2;fill:#ffffff"
       inkscape:connector-curvature="0" />
  </g>
</svg>
