<?xml version="1.0" encoding="UTF-8" standalone="no"?>
<svg
   xmlns:dc="http://purl.org/dc/elements/1.1/"
   xmlns:cc="http://creativecommons.org/ns#"
   xmlns:rdf="http://www.w3.org/1999/02/22-rdf-syntax-ns#"
   xmlns:svg="http://www.w3.org/2000/svg"
   xmlns="http://www.w3.org/2000/svg"
   xmlns:sodipodi="http://sodipodi.sourceforge.net/DTD/sodipodi-0.dtd"
   xmlns:inkscape="http://www.inkscape.org/namespaces/inkscape"
   width="60"
   height="59"
   version="1.1"
   id="svg16"
   sodipodi:docname="Installer.svg"
   inkscape:version="0.92.5 (2060ec1f9f, 2020-04-08)">
  <metadata
     id="metadata22">
    <rdf:RDF>
      <cc:Work
         rdf:about="">
        <dc:format>image/svg+xml</dc:format>
        <dc:type
           rdf:resource="http://purl.org/dc/dcmitype/StillImage" />
        <dc:title />
      </cc:Work>
    </rdf:RDF>
  </metadata>
  <defs
     id="defs20" />
  <sodipodi:namedview
     pagecolor="#ffffff"
     bordercolor="#666666"
     borderopacity="1"
     objecttolerance="10"
     gridtolerance="10"
     guidetolerance="10"
     inkscape:pageopacity="0"
     inkscape:pageshadow="2"
     inkscape:window-width="1920"
     inkscape:window-height="1013"
     id="namedview18"
     showgrid="false"
     inkscape:zoom="3.6875"
     inkscape:cx="-0.46928035"
     inkscape:cy="-6.6882478"
     inkscape:window-x="0"
     inkscape:window-y="0"
     inkscape:window-maximized="1"
     inkscape:current-layer="svg16" />
  <g
     id="g20">
    <path
       inkscape:connector-curvature="0"
       id="path2"
       d="M 28,1 C 12.488,1 0,13.488 0,29 0,44.512 12.488,57 28,57 43.512,57 56,44.512 56,29 56,13.488 43.512,1 28,1 Z m 0,16 A 12,12 0 0 1 40,29 12,12 0 0 1 28,41 12,12 0 0 1 16,29 12,12 0 0 1 28,17 Z"
       style="opacity:0.2" />
    <path
       inkscape:connector-curvature="0"
       id="path4"
       d="M 28,13 A 15,15 0 0 0 13,28 15,15 0 0 0 28,43 15,15 0 0 0 43,28 15,15 0 0 0 28,13 Z m 0,9 c 3.3138,0 6,2.6862 6,6 0,3.3138 -2.6862,6 -6,6 -3.3138,0 -6,-2.6862 -6,-6 0,-3.3138 2.6862,-6 6,-6 z"
       style="fill:#858585" />
    <path
       inkscape:connector-curvature="0"
       id="path6"
       d="M 28,0 C 12.488,0 0,12.488 0,28 0,43.512 12.488,56 28,56 43.512,56 56,43.512 56,28 56,12.488 43.512,0 28,0 Z m 0,16 A 12,12 0 0 1 40,28 12,12 0 0 1 28,40 12,12 0 0 1 16,28 12,12 0 0 1 28,16 Z"
       style="fill:#e4e4e4" />
    <path
       inkscape:connector-curvature="0"
       id="path8"
       d="M 16.025391,28.5 A 12,12 0 0 0 16,29 12,12 0 0 0 28,41 12,12 0 0 0 40,29 12,12 0 0 0 39.978516,28.595703 12,12 0 0 1 28,40 12,12 0 0 1 16.025391,28.5 Z M 28,0 C 12.488,0 0,12.488 0,28 0,28.11345 0.01128,28.224113 0.017578,28.335938 0.3691213,13.134181 12.710728,1 28,1 43.289272,1 55.630879,13.134181 55.982422,28.335938 55.98872,28.224113 56,28.11345 56,28 56,12.488 43.512,0 28,0 Z"
       style="opacity:0.2;fill:#ffffff" />
    <circle
       id="circle10"
       r="16"
       cy="42"
       cx="44"
       style="fill:#1caff3" />
    <path
       inkscape:connector-curvature="0"
       id="path12"
       d="m 43.966,50 -5.9656,-8 h 4 v -8 h 4 v 8 h 4 z"
       style="fill:#ffffff" />
    <path
       inkscape:connector-curvature="0"
       id="path14"
       d="M 28.025391,42.5 A 16,16.001894 0 0 0 28,42.998106 16,16.001894 0 0 0 44,59 16,16.001894 0 0 0 60,42.998106 16,16.001894 0 0 0 59.982422,42.50586 16,16.001894 0 0 1 44,57.999882 16,16.001894 0 0 1 28.025391,42.5 Z"
       style="opacity:0.2" />
  </g>
</svg>
