<?xml version="1.0" encoding="UTF-8" standalone="no"?>
<svg
   xmlns:dc="http://purl.org/dc/elements/1.1/"
   xmlns:cc="http://creativecommons.org/ns#"
   xmlns:rdf="http://www.w3.org/1999/02/22-rdf-syntax-ns#"
   xmlns:svg="http://www.w3.org/2000/svg"
   xmlns="http://www.w3.org/2000/svg"
   xmlns:sodipodi="http://sodipodi.sourceforge.net/DTD/sodipodi-0.dtd"
   xmlns:inkscape="http://www.inkscape.org/namespaces/inkscape"
   width="60"
   height="59"
   version="1.1"
   id="svg16"
   sodipodi:docname="Install.svg"
   inkscape:version="0.92.5 (2060ec1f9f, 2020-04-08)">
  <metadata
     id="metadata22">
    <rdf:RDF>
      <cc:Work
         rdf:about="">
        <dc:format>image/svg+xml</dc:format>
        <dc:type
           rdf:resource="http://purl.org/dc/dcmitype/StillImage" />
        <dc:title />
      </cc:Work>
    </rdf:RDF>
  </metadata>
  <defs
     id="defs20" />
  <sodipodi:namedview
     pagecolor="#ffffff"
     bordercolor="#666666"
     borderopacity="1"
     objecttolerance="10"
     gridtolerance="10"
     guidetolerance="10"
     inkscape:pageopacity="0"
     inkscape:pageshadow="2"
     inkscape:window-width="1920"
     inkscape:window-height="1013"
     id="namedview18"
     showgrid="false"
     inkscape:zoom="5.6568543"
     inkscape:cx="-10.915204"
     inkscape:cy="27.377925"
     inkscape:window-x="0"
     inkscape:window-y="0"
     inkscape:window-maximized="1"
     inkscape:current-layer="g156" />
  <g
     id="g156"
     transform="matrix(1.195,0,0,1.195,-8.24,-9.935)">
    <rect
       id="rect127"
       ry="2.5"
       rx="2.5"
       y="24"
       x="7"
       height="32"
       width="50"
       style="opacity:0.2" />
    <path
       id="path129"
       d="M 7,44.5 C 7,45.885 8.115,47 9.5,47 h 45 c 1.385,0 2.5,-1.115 2.5,-2.5 v -27 C 57,16.115 55.885,15 54.5,15 H 29 V 12.5 C 29,11.115 27.885,10 26.5,10 H 9.5 C 8.115,10 7,11.115 7,12.5"
       style="fill:#0a88c2;fill-opacity:1"
       inkscape:connector-curvature="0" />
    <rect
       id="rect131"
       ry="2.5"
       rx="2.5"
       y="22"
       x="7"
       height="32"
       width="50"
       style="opacity:0.2" />
    <rect
       id="rect133"
       ry="2.5"
       rx="2.5"
       y="18"
       x="10"
       height="20"
       width="44"
       style="fill:#dcdcdc" />
    <rect
       id="rect135"
       ry="2.5"
       rx="2.5"
       y="23"
       x="7"
       height="32"
       width="50"
       style="fill:#1caff3;fill-opacity:1" />
    <path
       id="path137"
       d="M 9.5,10 C 8.115,10 7,11.115 7,12.5 v 1 C 7,12.115 8.115,11 9.5,11 h 17 c 1.385,0 2.5,1.115 2.5,2.5 v -1 C 29,11.115 27.885,10 26.5,10 Z M 29,15 v 1 h 25.5 c 1.39,0 2.5,1.115 2.5,2.5 v -1 C 57,16.115 55.89,15 54.5,15 Z"
       style="opacity:0.1;fill:#ffffff"
       inkscape:connector-curvature="0" />
    <path
       id="path139"
       d="m 30,29 v 8 h -4 l 6,8 6,-8 h -4 v -8 z m -6,16 v 4 h 16 v -4 z"
       style="fill:#004878;fill-opacity:1"
       inkscape:connector-curvature="0" />
  </g>
</svg>
