<?xml version="1.0" encoding="UTF-8" standalone="no"?>
<svg
   xmlns:dc="http://purl.org/dc/elements/1.1/"
   xmlns:cc="http://creativecommons.org/ns#"
   xmlns:rdf="http://www.w3.org/1999/02/22-rdf-syntax-ns#"
   xmlns:svg="http://www.w3.org/2000/svg"
   xmlns="http://www.w3.org/2000/svg"
   xmlns:sodipodi="http://sodipodi.sourceforge.net/DTD/sodipodi-0.dtd"
   xmlns:inkscape="http://www.inkscape.org/namespaces/inkscape"
   width="60"
   height="59"
   version="1.1"
   id="svg16"
   sodipodi:docname="License.svg"
   inkscape:version="0.92.5 (2060ec1f9f, 2020-04-08)">
  <metadata
     id="metadata22">
    <rdf:RDF>
      <cc:Work
         rdf:about="">
        <dc:format>image/svg+xml</dc:format>
        <dc:type
           rdf:resource="http://purl.org/dc/dcmitype/StillImage" />
        <dc:title></dc:title>
      </cc:Work>
    </rdf:RDF>
  </metadata>
  <defs
     id="defs20" />
  <sodipodi:namedview
     pagecolor="#ffffff"
     bordercolor="#666666"
     borderopacity="1"
     objecttolerance="10"
     gridtolerance="10"
     guidetolerance="10"
     inkscape:pageopacity="0"
     inkscape:pageshadow="2"
     inkscape:window-width="1920"
     inkscape:window-height="1013"
     id="namedview18"
     showgrid="false"
     inkscape:zoom="5.6568545"
     inkscape:cx="-75.817603"
     inkscape:cy="59.789564"
     inkscape:window-x="0"
     inkscape:window-y="0"
     inkscape:window-maximized="1"
     inkscape:current-layer="svg16" />
  <g
     id="g91"
     transform="matrix(1.1565,0,0,1.1564944,6.87,0.0093928)">
    <path
       inkscape:connector-curvature="0"
       style="opacity:0.2"
       d="M 2.5,1.0000001 C 1.115,1.0000001 0,2.1150001 0,3.5 v 45 C 0,49.885 1.115,51 2.5,51 h 35 C 38.885,51 40,49.885 40,48.5 V 16 L 26.25,14.75 25,1.0000001 Z"
       id="path114" />
    <path
       inkscape:connector-curvature="0"
       d="M 2.5,0 C 1.115,0 0,1.115 0,2.5 v 45 C 0,48.885 1.115,50 2.5,50 h 35 C 38.885,50 40,48.885 40,47.5 V 15 L 26.25,13.75 25,0 Z"
       id="path116"
       style="fill:#1caff3;fill-opacity:1" />
    <path
       inkscape:connector-curvature="0"
       style="opacity:0.2"
       d="M 25,1.0000001 V 13.5 c 0,1.3808 1.1193,2.5 2.5,2.5 H 40 Z"
       id="path118" />
    <path
       inkscape:connector-curvature="0"
       d="m 25,0 v 12.5 c 0,1.3808 1.1193,2.5 2.5,2.5 H 40 Z"
       id="path120"
       style="fill:#52c2f6;fill-opacity:1" />
    <path
       inkscape:connector-curvature="0"
       style="opacity:0.2"
       d="m 9,23 v 3 h 22 v -3 z m 0,6 v 3 h 22 v -3 z m 0,6 v 3 h 22 v -3 z m 0,6 v 3 h 16 v -3 z"
       id="path122" />
    <path
       style="fill:#ffffff"
       inkscape:connector-curvature="0"
       d="m 9,22 v 3 h 22 v -3 z m 0,6 v 3 h 22 v -3 z m 0,6 v 3 h 22 v -3 z m 0,6 v 3 h 16 v -3 z"
       id="path124" />
    <path
       inkscape:connector-curvature="0"
       style="opacity:0.1;fill:#ffffff"
       d="m 2.5,1e-7 c -1.385,0 -2.5,1.115 -2.5,2.5 V 3.5 C 0,2.1150001 1.115,1.0000001 2.5,1.0000001 H 25 c 0,-1 0,0 0,-1 z"
       id="path126" />
  </g>
</svg>
